HIERARCHY
ROOT Hips
{
    OFFSET 0.000000 0.000000 0.000000
    CHANNELS 6 Xposition Yposition Zposition Zrotation Xrotation Yrotation
    JOINT Spine
    {
        OFFSET -0.000000 8.004412 0.000009
        CHANNELS 3 Zrotation Xrotation Yrotation
        JOINT Spine1
        {
            OFFSET 0.000000 23.696342 0.000001
            CHANNELS 3 Zrotation Xrotation Yrotation
            JOINT Neck
            {
                OFFSET 0.000000 26.650291 0.000006
                CHANNELS 3 Zrotation Xrotation Yrotation
                JOINT Head
                {
                    OFFSET 0.000001 16.351553 2.035163
                    CHANNELS 3 Zrotation Xrotation Yrotation
                    End Site
                    {
                        OFFSET 0.000000 20.351660 0.000000
                    }
                }
            }
            JOINT LeftShoulder
            {
                OFFSET 4.036570 20.304852 -0.371912
                CHANNELS 3 Zrotation Xrotation Yrotation
                JOINT LeftArm
                {
                    OFFSET 12.502549 0.000005 0.000011
                    CHANNELS 3 Zrotation Xrotation Yrotation
                    JOINT LeftForeArm
                    {
                        OFFSET 31.806908 0.000000 -0.000003
                        CHANNELS 3 Zrotation Xrotation Yrotation
                        JOINT LeftHand
                        {
                            OFFSET 24.843229 -0.000003 -0.000007
                            CHANNELS 3 Zrotation Xrotation Yrotation
                            JOINT LeftHandThumb1
                            {
                                OFFSET 2.126745 -2.416760 3.383457
                                CHANNELS 3 Zrotation Xrotation Yrotation
                                JOINT LeftHandThumb2
                                {
                                    OFFSET 3.212132 -0.000009 -0.000003
                                    CHANNELS 3 Zrotation Xrotation Yrotation
                                    JOINT LeftHandThumb3
                                    {
                                        OFFSET 2.745438 -0.000001 -0.000001
                                        CHANNELS 3 Zrotation Xrotation Yrotation
                                        End Site
                                        {
                                            OFFSET 2.793713 0.000000 0.000000
                                        }
                                    }
                                }
                            }
                            JOINT LeftHandIndex1
                            {
                                OFFSET 8.700326 -0.000001 3.383455
                                CHANNELS 3 Zrotation Xrotation Yrotation
                                JOINT LeftHandIndex2
                                {
                                    OFFSET 4.833514 -0.000002 -0.000005
                                    CHANNELS 3 Zrotation Xrotation Yrotation
                                    JOINT LeftHandIndex3
                                    {
                                        OFFSET 2.416759 0.000003 0.000009
                                        CHANNELS 3 Zrotation Xrotation Yrotation
                                        End Site
                                        {
                                            OFFSET 2.459254 0.000000 0.000000
                                        }
                                    }
                                }
                            }
                            JOINT LeftHandMiddle1
                            {
                                OFFSET 8.700338 -0.000002 1.121373
                                CHANNELS 3 Zrotation Xrotation Yrotation
                                JOINT LeftHandMiddle2
                                {
                                    OFFSET 5.316875 -0.000000 0.000005
                                    CHANNELS 3 Zrotation Xrotation Yrotation
                                    JOINT LeftHandMiddle3
                                    {
                                        OFFSET 2.900116 -0.000002 -0.000004
                                        CHANNELS 3 Zrotation Xrotation Yrotation
                                        End Site
                                        {
                                            OFFSET 2.951103 0.000000 0.000000
                                        }
                                    }
                                }
                            }
                            JOINT LeftHandRing1
                            {
                                OFFSET 8.216977 -0.000001 -1.121380
                                CHANNELS 3 Zrotation Xrotation Yrotation
                                JOINT LeftHandRing2
                                {
                                    OFFSET 4.833515 -0.000001 -0.000005
                                    CHANNELS 3 Zrotation Xrotation Yrotation
                                    JOINT LeftHandRing3
                                    {
                                        OFFSET 2.416759 0.000002 0.000009
                                        CHANNELS 3 Zrotation Xrotation Yrotation
                                        End Site
                                        {
                                            OFFSET 2.459254 0.000000 0.000000
                                        }
                                    }
                                }
                            }
                            JOINT LeftHandPinky1
                            {
                                OFFSET 7.733628 -0.000002 -3.383471
                                CHANNELS 3 Zrotation Xrotation Yrotation
                                JOINT LeftHandPinky2
                                {
                                    OFFSET 3.866809 0.000000 -0.000003
                                    CHANNELS 3 Zrotation Xrotation Yrotation
                                    JOINT LeftHandPinky3
                                    {
                                        OFFSET 1.933410 -0.000001 -0.000003
                                        CHANNELS 3 Zrotation Xrotation Yrotation
                                        End Site
                                        {
                                            OFFSET 1.967405 0.000000 0.000000
                                        }
                                    }
                                }
                            }
                        }
                    }
                }
            }
            JOINT RightShoulder
            {
                OFFSET -4.036570 20.304848 -0.371903
                CHANNELS 3 Zrotation Xrotation Yrotation
                JOINT RightArm
                {
                    OFFSET -12.502551 0.000005 0.000000
                    CHANNELS 3 Zrotation Xrotation Yrotation
                    JOINT RightForeArm
                    {
                        OFFSET -31.806919 0.000006 0.000007
                        CHANNELS 3 Zrotation Xrotation Yrotation
                        JOINT RightHand
                        {
                            OFFSET -24.843227 -0.000004 0.000000
                            CHANNELS 3 Zrotation Xrotation Yrotation
                            JOINT RightHandThumb1
                            {
                                OFFSET -2.126748 -2.416765 3.383460
                                CHANNELS 3 Zrotation Xrotation Yrotation
                                JOINT RightHandThumb2
                                {
                                    OFFSET -3.212141 0.000004 -0.000003
                                    CHANNELS 3 Zrotation Xrotation Yrotation
                                    JOINT RightHandThumb3
                                    {
                                        OFFSET -2.745443 0.000008 -0.000004
                                        CHANNELS 3 Zrotation Xrotation Yrotation
                                        End Site
                                        {
                                            OFFSET -2.793713 0.000000 0.000000
                                        }
                                    }
                                }
                            }
                            JOINT RightHandIndex1
                            {
                                OFFSET -8.700344 0.000012 3.383465
                                CHANNELS 3 Zrotation Xrotation Yrotation
                                JOINT RightHandIndex2
                                {
                                    OFFSET -4.833524 0.000007 -0.000000
                                    CHANNELS 3 Zrotation Xrotation Yrotation
                                    JOINT RightHandIndex3
                                    {
                                        OFFSET -2.416758 -0.000007 -0.000003
                                        CHANNELS 3 Zrotation Xrotation Yrotation
                                        End Site
                                        {
                                            OFFSET -2.459254 0.000000 0.000000
                                        }
                                    }
                                }
                            }
                            JOINT RightHandMiddle1
                            {
                                OFFSET -8.700332 0.000001 1.121375
                                CHANNELS 3 Zrotation Xrotation Yrotation
                                JOINT RightHandMiddle2
                                {
                                    OFFSET -5.316875 0.000007 0.000000
                                    CHANNELS 3 Zrotation Xrotation Yrotation
                                    JOINT RightHandMiddle3
                                    {
                                        OFFSET -2.900109 -0.000007 -0.000005
                                        CHANNELS 3 Zrotation Xrotation Yrotation
                                        End Site
                                        {
                                            OFFSET -2.951103 0.000000 0.000000
                                        }
                                    }
                                }
                            }
                            JOINT RightHandRing1
                            {
                                OFFSET -8.216982 0.000000 -1.121379
                                CHANNELS 3 Zrotation Xrotation Yrotation
                                JOINT RightHandRing2
                                {
                                    OFFSET -4.833524 0.000008 0.000001
                                    CHANNELS 3 Zrotation Xrotation Yrotation
                                    JOINT RightHandRing3
                                    {
                                        OFFSET -2.416758 -0.000007 -0.000004
                                        CHANNELS 3 Zrotation Xrotation Yrotation
                                        End Site
                                        {
                                            OFFSET -2.459254 0.000000 0.000000
                                        }
                                    }
                                }
                            }
                            JOINT RightHandPinky1
                            {
                                OFFSET -7.733635 0.000005 -3.383465
                                CHANNELS 3 Zrotation Xrotation Yrotation
                                JOINT RightHandPinky2
                                {
                                    OFFSET -3.866822 0.000009 0.000003
                                    CHANNELS 3 Zrotation Xrotation Yrotation
                                    JOINT RightHandPinky3
                                    {
                                        OFFSET -1.933402 -0.000004 -0.000002
                                        CHANNELS 3 Zrotation Xrotation Yrotation
                                        End Site
                                        {
                                            OFFSET -1.967405 0.000000 0.000000
                                        }
                                    }
                                }
                            }
                        }
                    }
                }
            }
        }
    }
    JOINT LeftUpLeg
    {
        OFFSET 10.175827 -0.000003 0.000004
        CHANNELS 3 Zrotation Xrotation Yrotation
        JOINT LeftLeg
        {
            OFFSET -0.000001 -42.882954 -0.000006
            CHANNELS 3 Zrotation Xrotation Yrotation
            JOINT LeftFoot
            {
                OFFSET -0.000002 -39.006771 -0.000009
                CHANNELS 3 Zrotation Xrotation Yrotation
                JOINT LeftToeBase
                {
                    OFFSET 0.000000 -6.614287 15.263732
                    CHANNELS 3 Zrotation Xrotation Yrotation
                    End Site
                    {
                        OFFSET 0.000000 0.000000 4.070332
                    }
                }
            }
        }
    }
    JOINT RightUpLeg
    {
        OFFSET -10.175826 0.000003 -0.000004
        CHANNELS 3 Zrotation Xrotation Yrotation
        JOINT RightLeg
        {
            OFFSET -0.000001 -42.882950 -0.000002
            CHANNELS 3 Zrotation Xrotation Yrotation
            JOINT RightFoot
            {
                OFFSET 0.000000 -39.006767 0.000006
                CHANNELS 3 Zrotation Xrotation Yrotation
                JOINT RightToeBase
                {
                    OFFSET 0.000003 -6.614288 15.263746
                    CHANNELS 3 Zrotation Xrotation Yrotation
                    End Site
                    {
                        OFFSET 0.000000 0.000000 4.070332
                    }
                }
            }
        }
    }
}
MOTION
Frames:    4
Frame Time:    0.002778
-22.711546    89.346733    218.362946    8.518821    0.558811    8.276966    0.133168    5.400131    4.103052    0.665831    5.399782    4.052925    4.178111    -1.072264    -3.723945    4.178116    -1.072263    -3.723943    -6.836108    1.442982    -0.944687    -58.875904    23.119291    -12.433087    -13.628160    11.178950    -133.298553    14.936920    6.055739    22.208218    47.448204    38.866428    -34.355038    -34.999989    -0.000003    0.000009    -0.000000    0.000000    -0.000000    0.000000    9.999996    -0.000005    -0.000000    0.000000    -0.000000    -0.000000    0.000000    -0.000000    -0.000000    0.000000    -0.000000    -0.000000    0.000000    -0.000000    -0.000000    0.000000    -0.000000    -0.000000    0.000000    -0.000000    -0.000000    0.000000    -0.000000    -0.000000    0.000000    -0.000000    0.000004    -10.000008    0.000007    -0.000000    0.000000    -0.000000    -0.000000    0.000000    -0.000000    -6.824464    -1.501929    1.970645    30.396616    -24.328749    54.849266    -24.314718    -11.747458    72.748955    -4.342844    3.481105    -36.502247    -47.448219    38.866444    34.355038    35.000008    0.000002    -0.000006    -0.000000    0.000000    -0.000000    0.000003    10.000001    0.000005    -0.000000    0.000000    -0.000000    -0.000000    0.000000    -0.000000    -0.000000    0.000000    -0.000000    -0.000000    0.000000    -0.000000    -0.000000    0.000000    -0.000000    -0.000000    0.000000    -0.000000    -0.000000    0.000000    -0.000000    -0.000000    0.000000    -0.000000    0.000000    -9.999995    0.000001    -0.000000    0.000000    -0.000000    -0.000000    0.000000    -0.000000    11.249472    -14.922893    -5.200442    -0.000003    31.209457    0.000001    -20.756584    -14.210691    3.876179    -0.000000    -1.739504    -0.000001    -15.931026    -20.694225    -7.984962    0.000000    55.711281    -0.000000    8.983716    -31.293625    -24.990658    -0.000000    -0.939813    0.000003    
-22.691689    89.310570    218.379135    8.461333    0.523582    8.371885    0.130564    5.402376    4.086848    0.652816    5.402040    4.037677    4.166738    -1.045773    -3.727005    4.166734    -1.045778    -3.727007    -6.819278    1.442382    -0.919548    -58.942402    23.074797    -12.388426    -13.541447    11.112296    -133.376892    14.901371    6.044828    22.219370    47.448231    38.866417    -34.355042    -35.000004    0.000002    0.000003    -0.000000    0.000000    -0.000000    0.000003    10.000005    0.000001    -0.000000    0.000000    -0.000000    -0.000000    0.000000    -0.000000    -0.000000    0.000000    -0.000000    -0.000000    0.000000    -0.000000    -0.000000    0.000000    -0.000000    -0.000000    0.000000    -0.000000    -0.000000    0.000000    -0.000000    -0.000000    0.000000    -0.000000    0.000000    -9.999988    0.000003    -0.000000    0.000000    -0.000000    -0.000000    0.000000    -0.000000    -6.836803    -1.478684    1.938620    30.440207    -24.265402    54.849995    -24.366501    -11.834566    72.952499    -4.244551    3.412554    -36.532295    -47.448200    38.866444    34.355019    35.000004    -0.000002    -0.000000    -0.000000    0.000000    -0.000000    -0.000003    9.999999    -0.000007    -0.000000    0.000000    -0.000000    -0.000000    0.000000    -0.000000    -0.000000    0.000000    -0.000000    -0.000000    0.000000    -0.000000    -0.000000    0.000000    -0.000000    -0.000000    0.000000    -0.000000    -0.000000    0.000000    -0.000000    -0.000000    0.000000    -0.000000    -0.000000    -9.999998    -0.000003    -0.000000    0.000000    -0.000000    -0.000000    0.000000    -0.000000    11.269878    -14.896420    -5.199223    0.000000    31.253429    -0.000000    -20.707113    -14.410618    3.873776    -0.000000    -1.730970    0.000001    -15.886151    -20.657099    -8.000855    -0.000002    55.787277    0.000001    8.995710    -31.346924    -25.042780    -0.000000    -0.949364    0.000001    
-22.669348    89.274368    218.392563    8.405389    0.485104    8.464172    0.128382    5.407976    4.073278    0.641913    5.407654    4.024883    4.163803    -1.027167    -3.719680    4.163807    -1.027166    -3.719677    -6.815894    1.435490    -0.903022    -58.997063    23.012197    -12.345051    -13.441033    11.027428    -133.462646    14.858617    6.029836    22.226784    47.448242    38.866428    -34.355038    -34.999996    -0.000002    0.000001    -0.000000    0.000000    -0.000000    -0.000000    10.000008    -0.000000    -0.000000    0.000000    -0.000000    -0.000000    0.000000    -0.000000    -0.000000    0.000000    -0.000000    -0.000000    0.000000    -0.000000    -0.000000    0.000000    -0.000000    -0.000000    0.000000    -0.000000    -0.000000    0.000000    -0.000000    -0.000000    0.000000    -0.000000    0.000004    -10.000000    0.000002    -0.000000    0.000000    -0.000000    -0.000000    0.000000    -0.000000    -6.845167    -1.456248    1.908503    30.455311    -24.199066    54.825104    -24.386822    -11.953135    73.181686    -4.134584    3.335643    -36.569778    -47.448212    38.866447    34.355026    34.999992    0.000002    0.000011    -0.000000    0.000000    -0.000000    0.000004    10.000008    -0.000003    -0.000000    0.000000    -0.000000    -0.000000    0.000000    -0.000000    -0.000000    0.000000    -0.000000    -0.000000    0.000000    -0.000000    -0.000000    0.000000    -0.000000    -0.000000    0.000000    -0.000000    -0.000000    0.000000    -0.000000    -0.000000    0.000000    -0.000000    0.000000    -9.999993    0.000000    -0.000000    0.000000    -0.000000    -0.000000    0.000000    -0.000000    11.286437    -14.876669    -5.206126    0.000002    31.314383    0.000000    -20.670721    -14.612218    3.877712    0.000000    -1.721617    -0.000001    -15.847866    -20.620390    -8.027877    -0.000001    55.865288    0.000001    9.003922    -31.391815    -25.084267    0.000000    -0.958940    -0.000003    
-22.646996    89.235870    218.406631    8.349226    0.446998    8.555717    0.125336    5.414081    4.059894    0.626688    5.413772    4.012593    4.156519    -1.008253    -3.710817    4.156518    -1.008255    -3.710817    -6.804387    1.444375    -0.892992    -59.046314    22.992779    -12.312299    -13.366673    10.959521    -133.554581    14.855108    6.041591    22.265968    47.448219    38.866428    -34.355053    -35.000008    -0.000001    0.000013    -0.000000    0.000000    -0.000000    0.000003    10.000001    -0.000000    -0.000000    0.000000    -0.000000    -0.000000    0.000000    -0.000000    -0.000000    0.000000    -0.000000    -0.000000    0.000000    -0.000000    -0.000000    0.000000    -0.000000    -0.000000    0.000000    -0.000000    -0.000000    0.000000    -0.000000    -0.000000    0.000000    -0.000000    0.000000    -9.999997    0.000000    -0.000000    0.000000    -0.000000    -0.000000    0.000000    -0.000000    -6.850305    -1.443646    1.886373    30.486082    -24.145220    54.772865    -24.383722    -12.089307    73.404907    -4.022618    3.252150    -36.567032    -47.448215    38.866459    34.355042    35.000008    -0.000001    -0.000003    -0.000000    0.000000    -0.000000    0.000000    10.000008    -0.000003    -0.000000    0.000000    -0.000000    -0.000000    0.000000    -0.000000    -0.000000    0.000000    -0.000000    -0.000000    0.000000    -0.000000    -0.000000    0.000000    -0.000000    -0.000000    0.000000    -0.000000    -0.000000    0.000000    -0.000000    -0.000000    0.000000    -0.000000    -0.000004    -9.999993    -0.000001    -0.000000    0.000000    -0.000000    -0.000000    0.000000    -0.000000    11.302741    -14.862898    -5.218960    -0.000005    31.384968    0.000001    -20.629210    -14.817520    3.880678    0.000000    -1.711123    0.000002    -15.813486    -20.587086    -8.063375    -0.000002    55.946751    0.000002    8.994211    -31.424854    -25.125677    -0.000000    -0.978490    -0.000001    
